<svg width="242" height="211" viewBox="0 0 242 211" fill="none" xmlns="http://www.w3.org/2000/svg">
<g clip-path="url(#clip0_1_7)">
<path fill-rule="evenodd" clip-rule="evenodd" d="M121 0C187.826 0 242 47.234 242 105.5C242 163.766 187.826 211 121 211C54.1735 211 0 163.766 0 105.5C0 47.234 54.1735 0 121 0Z" fill="#06041F"/>
<mask id="mask0_1_7" style="mask-type:luminance" maskUnits="userSpaceOnUse" x="46" y="53" width="149" height="106">
<path d="M46.7502 53.0309H194.805V158.25H46.7502V53.0309Z" fill="#47D7AC"/>
</mask>
<g mask="url(#mask0_1_7)">
<path fill-rule="evenodd" clip-rule="evenodd" d="M84.8307 73.3479C83.7739 73.3479 82.8999 73.6583 82.2176 74.2798C79.9377 76.3566 78.6556 82.4992 82.5478 92.9749C86.1196 102.588 93.035 112.951 102.229 122.546C103.436 117.163 104.099 111.229 104.099 104.964C104.099 86.5434 93.9109 76.1125 87.4886 73.8643C86.5045 73.5202 85.6172 73.3479 84.8307 73.3479ZM139.096 88.3997C138.309 92.2595 137.883 96.3745 137.883 100.648C137.883 117.457 146.397 133.141 154.037 136.703C156.347 137.781 157.786 137.353 158.788 136.804C160.489 135.52 161.461 133.414 161.677 130.542C162.467 120.035 153.179 102.957 139.096 88.3997ZM108.045 128.228C129.481 147.825 152.524 154.643 164.651 151.143C170.872 149.347 176.588 144.096 180.747 136.357C185.285 127.913 187.684 117.276 187.684 105.595C187.684 93.2542 184.961 81.7924 180.016 73.3202C175.364 65.35 169.244 60.9602 162.783 60.9602C153.529 60.9602 145.438 69.047 141.146 81.0207C158.458 97.5847 169.762 117.924 168.783 130.948C168.432 135.612 166.49 139.332 163.167 141.705L162.887 141.885C159.205 144.028 154.869 144.132 150.679 142.179C139.697 137.057 130.762 118.427 130.762 100.648C130.762 94.3886 131.605 88.3103 133.209 82.7173C109.842 61.5354 87.151 54.0876 72.2732 62.8034C61.0957 69.367 53.8708 86.1651 53.8708 105.595C53.8708 130.697 64.9959 150.36 79.199 150.36C88.0723 150.36 95.723 142.308 100.122 129.904C88.6848 118.81 80.0477 106.393 75.7735 94.888C71.5898 83.6266 72.0634 74.5506 77.074 69.9869C80.3289 67.0214 85.0923 66.3351 90.142 68.103C100.616 71.7689 111.22 85.608 111.22 104.964C111.22 113.224 110.12 121.158 108.045 128.228ZM157.68 158.25C142.294 158.25 122.687 149.574 105.661 134.961C104.859 136.868 103.975 138.685 103.011 140.395C97.1369 150.825 88.6802 156.568 79.199 156.568C69.6947 156.568 61.1711 150.952 55.1983 140.755C49.7505 131.454 46.7502 118.968 46.7502 105.595C46.7502 83.828 55.0071 65.457 68.2986 57.6515C77.5125 52.2544 89.0974 51.5717 101.802 55.6756C112.593 59.1616 124.195 66.1462 135.607 75.9954C136.668 73.5458 137.894 71.2349 139.277 69.0962C145.257 59.8459 153.606 54.7512 162.783 54.7512C181.039 54.7512 194.805 76.6098 194.805 105.595C194.805 118.18 192.174 129.729 187.196 138.992C184.753 143.537 181.815 147.382 178.463 150.419C174.942 153.61 171.048 155.836 166.889 157.037C164.057 157.854 160.963 158.25 157.68 158.25Z" fill="#47D7AC"/>
</g>
</g>
<defs>
<clipPath id="clip0_1_7">
<rect width="242" height="211" fill="white"/>
</clipPath>
</defs>
</svg>
